Peel.ufo
<glyph name="percent" format="1">
  <advance width="1764"/>
  <unicode hex="0025"/>
  <outline>
    <contour>
      <point x="456" y="906" type="curve" smooth="yes"/>
      <point x="305" y="906"/>
      <point x="230" y="1038"/>
      <point x="230" y="1169" type="curve" smooth="yes"/>
      <point x="230" y="1298"/>
      <point x="304" y="1428"/>
      <point x="456" y="1428" type="curve" smooth="yes"/>
      <point x="607" y="1428"/>
      <point x="683" y="1298"/>
      <point x="683" y="1169" type="curve" smooth="yes"/>
      <point x="683" y="1038"/>
      <point x="606" y="906"/>
    </contour>
    <contour>
      <point x="456" y="798" type="curve" smooth="yes"/>
      <point x="700" y="798"/>
      <point x="821" y="980"/>
      <point x="821" y="1164" type="curve" smooth="yes"/>
      <point x="821" y="1351"/>
      <point x="698" y="1538"/>
      <point x="456" y="1538" type="curve" smooth="yes"/>
      <point x="214" y="1538"/>
      <point x="90" y="1351"/>
      <point x="90" y="1164" type="curve" smooth="yes"/>
      <point x="90" y="980"/>
      <point x="209" y="798"/>
    </contour>
    <contour>
      <point x="338" y="0" type="line"/>
      <point x="492" y="0" type="line"/>
      <point x="1425" y="1516" type="line"/>
      <point x="1273" y="1516" type="line"/>
    </contour>
    <contour>
      <point x="1309" y="92" type="curve" smooth="yes"/>
      <point x="1159" y="92"/>
      <point x="1083" y="224"/>
      <point x="1083" y="354" type="curve" smooth="yes"/>
      <point x="1083" y="484"/>
      <point x="1158" y="614"/>
      <point x="1309" y="614" type="curve" smooth="yes"/>
      <point x="1461" y="614"/>
      <point x="1535" y="484"/>
      <point x="1535" y="354" type="curve" smooth="yes"/>
      <point x="1535" y="224"/>
      <point x="1460" y="92"/>
    </contour>
    <contour>
      <point x="1309" y="-17" type="curve" smooth="yes"/>
      <point x="1555" y="-17"/>
      <point x="1674" y="166"/>
      <point x="1674" y="349" type="curve" smooth="yes"/>
      <point x="1674" y="535"/>
      <point x="1552" y="723"/>
      <point x="1309" y="723" type="curve" smooth="yes"/>
      <point x="1067" y="723"/>
      <point x="943" y="535"/>
      <point x="943" y="349" type="curve" smooth="yes"/>
      <point x="943" y="166"/>
      <point x="1064" y="-17"/>
    </contour>
  </outline>
</glyph>
<glyph name="quotesingle" format="1">
  <advance width="560"/>
  <unicode hex="0027"/>
  <outline>
    <contour>
      <point x="279" y="961" type="curve" smooth="yes"/>
      <point x="295" y="961"/>
      <point x="313" y="987"/>
      <point x="319" y="1035" type="curve"/>
      <point x="374" y="1420" type="line"/>
      <point x="376" y="1424"/>
      <point x="376" y="1429"/>
      <point x="376" y="1435" type="curve" smooth="yes"/>
      <point x="376" y="1489"/>
      <point x="329" y="1515"/>
      <point x="282" y="1515" type="curve" smooth="yes"/>
      <point x="236" y="1515"/>
      <point x="187" y="1488"/>
      <point x="187" y="1434" type="curve" smooth="yes"/>
      <point x="187" y="1429"/>
      <point x="189" y="1424"/>
      <point x="189" y="1420" type="curve" smooth="yes"/>
      <point x="241" y="1034" type="line"/>
      <point x="246" y="985"/>
      <point x="262" y="961"/>
    </contour>
  </outline>
</glyph>
<glyph name="plus" format="1">
  <advance width="1188"/>
  <unicode hex="002B"/>
  <outline>
    <contour>
      <point x="516" y="356" type="line"/>
      <point x="671" y="356" type="line"/>
      <point x="671" y="706" type="line"/>
      <point x="995" y="706" type="line"/>
      <point x="995" y="861" type="line"/>
      <point x="671" y="861" type="line"/>
      <point x="671" y="1211" type="line"/>
      <point x="516" y="1211" type="line"/>
      <point x="516" y="861" type="line"/>
      <point x="192" y="861" type="line"/>
      <point x="192" y="706" type="line"/>
      <point x="516" y="706" type="line"/>
    </contour>
  </outline>
</glyph>
<glyph name="slash" format="1">
  <advance width="1096"/>
  <unicode hex="002F"/>
  <outline>
    <contour>
      <point x="81" y="0" type="line"/>
      <point x="273" y="0" type="line"/>
      <point x="1012" y="1516" type="line"/>
      <point x="822" y="1516" type="line"/>
    </contour>
  </outline>
</glyph>
<glyph name="two" format="1">
  <advance width="1094"/>
  <unicode hex="0032"/>
  <outline>
    <contour>
      <point x="95" y="0" type="line"/>
      <point x="993" y="0" type="line"/>
      <point x="993" y="157" type="line"/>
      <point x="290" y="157" type="line"/>
      <point x="718" y="606" type="line"/>
      <point x="886" y="780"/>
      <point x="989" y="926"/>
      <point x="989" y="1116" type="curve" smooth="yes"/>
      <point x="989" y="1371"/>
      <point x="818" y="1534"/>
      <point x="535" y="1534" type="curve" smooth="yes"/>
      <point x="340" y="1534"/>
      <point x="210" y="1483"/>
      <point x="125" y="1404" type="curve"/>
      <point x="185" y="1252" type="line"/>
      <point x="270" y="1338"/>
      <point x="396" y="1375"/>
      <point x="521" y="1375" type="curve" smooth="yes"/>
      <point x="700" y="1375"/>
      <point x="791" y="1277"/>
      <point x="791" y="1102" type="curve" smooth="yes"/>
      <point x="791" y="983"/>
      <point x="715" y="868"/>
      <point x="596" y="736" type="curve"/>
      <point x="95" y="164" type="line"/>
    </contour>
  </outline>
</glyph>
<glyph name="colon" format="1">
  <advance width="640"/>
  <unicode hex="003A"/>
  <outline>
    <contour>
      <point x="320" y="110" type="curve" smooth="yes"/>
      <point x="384" y="110"/>
      <point x="450" y="151"/>
      <point x="450" y="236" type="curve" smooth="yes"/>
      <point x="450" y="325"/>
      <point x="384" y="369"/>
      <point x="320" y="369" type="curve" smooth="yes"/>
      <point x="255" y="369"/>
      <point x="190" y="326"/>
      <point x="190" y="236" type="curve" smooth="yes"/>
      <point x="190" y="151"/>
      <point x="255" y="110"/>
    </contour>
    <contour>
      <point x="320" y="678" type="curve" smooth="yes"/>
      <point x="384" y="678"/>
      <point x="450" y="719"/>
      <point x="450" y="803" type="curve" smooth="yes"/>
      <point x="450" y="892"/>
      <point x="384" y="937"/>
      <point x="320" y="937" type="curve" smooth="yes"/>
      <point x="255" y="937"/>
      <point x="190" y="894"/>
      <point x="190" y="803" type="curve" smooth="yes"/>
      <point x="190" y="719"/>
      <point x="255" y="678"/>
    </contour>
  </outline>
</glyph>
<glyph name="B" format="1">
  <advance width="1233"/>
  <unicode hex="0042"/>
  <outline>
    <contour>
      <point x="167" y="0" type="line"/>
      <point x="588" y="0" type="line" smooth="yes"/>
      <point x="949" y="0"/>
      <point x="1121" y="142"/>
      <point x="1121" y="428" type="curve" smooth="yes"/>
      <point x="1121" y="495"/>
      <point x="1092" y="738"/>
      <point x="835" y="815" type="curve"/>
      <point x="979" y="858"/>
      <point x="1051" y="998"/>
      <point x="1051" y="1119" type="curve" smooth="yes"/>
      <point x="1051" y="1318"/>
      <point x="900" y="1516"/>
      <point x="597" y="1516" type="curve" smooth="yes"/>
      <point x="167" y="1516" type="line"/>
    </contour>
    <contour>
      <point x="357" y="860" type="line"/>
      <point x="357" y="1347" type="line"/>
      <point x="618" y="1347" type="line" smooth="yes"/>
      <point x="789" y="1347"/>
      <point x="870" y="1232"/>
      <point x="870" y="1114" type="curve" smooth="yes"/>
      <point x="870" y="990"/>
      <point x="788" y="860"/>
      <point x="640" y="860" type="curve" smooth="yes"/>
    </contour>
    <contour>
      <point x="357" y="173" type="line"/>
      <point x="357" y="705" type="line"/>
      <point x="670" y="705" type="line" smooth="yes"/>
      <point x="854" y="705"/>
      <point x="921" y="547"/>
      <point x="921" y="428" type="curve" smooth="yes"/>
      <point x="921" y="201"/>
      <point x="728" y="173"/>
      <point x="575" y="173" type="curve" smooth="yes"/>
    </contour>
  </outline>
</glyph>
<glyph name="K" format="1">
  <advance width="1401"/>
  <unicode hex="004B"/>
  <outline>
    <contour>
      <point x="168" y="0" type="line"/>
      <point x="360" y="0" type="line"/>
      <point x="360" y="742" type="line"/>
      <point x="1041" y="0" type="line"/>
      <point x="1300" y="0" type="line"/>
      <point x="1300" y="8" type="line"/>
      <point x="586" y="789" type="line"/>
      <point x="1208" y="1506" type="line"/>
      <point x="1208" y="1516" type="line"/>
      <point x="973" y="1516" type="line"/>
      <point x="360" y="824" type="line"/>
      <point x="360" y="1516" type="line"/>
      <point x="168" y="1516" type="line"/>
    </contour>
  </outline>
</glyph>
<glyph name="L" format="1">
  <advance width="990"/>
  <unicode hex="004C"/>
  <outline>
    <contour>
      <point x="168" y="0" type="line"/>
      <point x="986" y="0" type="line"/>
      <point x="986" y="179" type="line"/>
      <point x="360" y="179" type="line"/>
      <point x="360" y="1516" type="line"/>
      <point x="168" y="1516" type="line"/>
    </contour>
  </outline>
</glyph>
<glyph name="S" format="1">
  <advance width="1083"/>
  <unicode hex="0053"/>
  <outline>
    <contour>
      <point x="515" y="-14" type="curve" smooth="yes"/>
      <point x="742" y="-14"/>
      <point x="963" y="124"/>
      <point x="963" y="390" type="curve" smooth="yes"/>
      <point x="963" y="534"/>
      <point x="912" y="643"/>
      <point x="735" y="771" type="curve"/>
      <point x="478" y="948" type="line" smooth="yes"/>
      <point x="386" y="1012"/>
      <point x="333" y="1092"/>
      <point x="333" y="1170" type="curve" smooth="yes"/>
      <point x="333" y="1273"/>
      <point x="418" y="1359"/>
      <point x="587" y="1359" type="curve" smooth="yes"/>
      <point x="729" y="1359"/>
      <point x="876" y="1248"/>
      <point x="906" y="1224" type="curve"/>
      <point x="906" y="1439" type="line"/>
      <point x="876" y="1466"/>
      <point x="711" y="1537"/>
      <point x="569" y="1537" type="curve" smooth="yes"/>
      <point x="283" y="1537"/>
      <point x="125" y="1346"/>
      <point x="125" y="1149" type="curve" smooth="yes"/>
      <point x="125" y="1035"/>
      <point x="180" y="916"/>
      <point x="298" y="831" type="curve" smooth="yes"/>
      <point x="613" y="605" type="line" smooth="yes"/>
      <point x="752" y="506"/>
      <point x="772" y="446"/>
      <point x="772" y="376" type="curve" smooth="yes"/>
      <point x="772" y="239"/>
      <point x="663" y="167"/>
      <point x="530" y="167" type="curve" smooth="yes"/>
      <point x="348" y="167"/>
      <point x="251" y="267"/>
      <point x="156" y="343" type="curve"/>
      <point x="156" y="123" type="line"/>
      <point x="252" y="32"/>
      <point x="384" y="-14"/>
    </contour>
  </outline>
</glyph>
<glyph name="U" format="1">
  <advance width="1525"/>
  <unicode hex="0055"/>
  <outline>
    <contour>
      <point x="764" y="-18" type="curve" smooth="yes"/>
      <point x="1069" y="-18"/>
      <point x="1376" y="182"/>
      <point x="1376" y="588" type="curve" smooth="yes"/>
      <point x="1376" y="1515" type="line"/>
      <point x="1184" y="1515" type="line"/>
      <point x="1184" y="592" type="line" smooth="yes"/>
      <point x="1184" y="301"/>
      <point x="973" y="155"/>
      <point x="761" y="155" type="curve" smooth="yes"/>
      <point x="549" y="155"/>
      <point x="341" y="301"/>
      <point x="341" y="592" type="curve" smooth="yes"/>
      <point x="341" y="1515" type="line"/>
      <point x="149" y="1515" type="line"/>
      <point x="149" y="587" type="line" smooth="yes"/>
      <point x="149" y="182"/>
      <point x="458" y="-18"/>
    </contour>
  </outline>
</glyph>
<glyph name="V" format="1">
  <advance width="1408"/>
  <unicode hex="0056"/>
  <outline>
    <contour>
      <point x="685" y="-13" type="line"/>
      <point x="741" y="-13" type="line"/>
      <point x="1349" y="1515" type="line"/>
      <point x="1150" y="1515" type="line"/>
      <point x="714" y="366" type="line"/>
      <point x="256" y="1515" type="line"/>
      <point x="56" y="1515" type="line"/>
    </contour>
  </outline>
</glyph>
<glyph name="bracketleft" format="1">
  <advance width="711"/>
  <unicode hex="005B"/>
  <outline>
    <contour>
      <point x="120" y="-18" type="line"/>
      <point x="697" y="-18" type="line"/>
      <point x="697" y="167" type="line"/>
      <point x="333" y="167" type="line"/>
      <point x="333" y="1382" type="line"/>
      <point x="697" y="1382" type="line"/>
      <point x="697" y="1567" type="line"/>
      <point x="120" y="1567" type="line"/>
    </contour>
  </outline>
</glyph>
<glyph name="backslash" format="1">
  <advance width="1096"/>
  <unicode hex="005C"/>
  <outline>
    <contour>
      <point x="824" y="0" type="line"/>
      <point x="1016" y="0" type="line"/>
      <point x="275" y="1516" type="line"/>
      <point x="85" y="1516" type="line"/>
    </contour>
  </outline>
</glyph>
<glyph name="e" format="1">
  <advance width="1109"/>
  <unicode hex="0065"/>
  <outline>
    <contour>
      <point x="650" y="-19" type="curve" smooth="yes"/>
      <point x="768" y="-19"/>
      <point x="872" y="12"/>
      <point x="963" y="72" type="curve"/>
      <point x="963" y="229" type="line"/>
      <point x="864" y="163"/>
      <point x="758" y="130"/>
      <point x="649" y="130" type="curve" smooth="yes"/>
      <point x="436" y="130"/>
      <point x="309" y="283"/>
      <point x="307" y="498" type="curve"/>
      <point x="981" y="498" type="line"/>
      <point x="981" y="525" type="line" smooth="yes"/>
      <point x="981" y="812"/>
      <point x="847" y="1016"/>
      <point x="567" y="1016" type="curve" smooth="yes"/>
      <point x="304" y="1016"/>
      <point x="115" y="788"/>
      <point x="115" y="515" type="curve" smooth="yes"/>
      <point x="115" y="198"/>
      <point x="327" y="-19"/>
    </contour>
    <contour>
      <point x="313" y="618" type="line"/>
      <point x="337" y="757"/>
      <point x="425" y="867"/>
      <point x="573" y="867" type="curve" smooth="yes"/>
      <point x="713" y="867"/>
      <point x="817" y="762"/>
      <point x="818" y="618" type="curve"/>
    </contour>
  </outline>
</glyph>
<glyph name="r" format="1">
  <advance width="852"/>
  <unicode hex="0072"/>
  <outline>
    <contour>
      <point x="173" y="0" type="line"/>
      <point x="349" y="0" type="line"/>
      <point x="349" y="411" type="line" smooth="yes"/>
      <point x="349" y="737"/>
      <point x="502" y="825"/>
      <point x="582" y="825" type="curve" smooth="yes"/>
      <point x="639" y="825"/>
      <point x="689" y="779"/>
      <point x="720" y="740" type="curve"/>
      <point x="837" y="899" type="line"/>
      <point x="760" y="985"/>
      <point x="676" y="1015"/>
      <point x="626" y="1015" type="curve" smooth="yes"/>
      <point x="482" y="1015"/>
      <point x="386" y="870"/>
      <point x="349" y="749" type="curve"/>
      <point x="349" y="998" type="line"/>
      <point x="173" y="998" type="line"/>
    </contour>
  </outline>
</glyph>
<glyph name="t" format="1">
  <advance width="812"/>
  <unicode hex="0074"/>
  <outline>
    <contour>
      <point x="502" y="-21" type="curve" smooth="yes"/>
      <point x="589" y="-21"/>
      <point x="680" y="5"/>
      <point x="753" y="62" type="curve"/>
      <point x="753" y="220" type="line"/>
      <point x="684" y="172"/>
      <point x="596" y="129"/>
      <point x="526" y="129" type="curve" smooth="yes"/>
      <point x="453" y="129"/>
      <point x="394" y="163"/>
      <point x="394" y="264" type="curve" smooth="yes"/>
      <point x="394" y="859" type="line"/>
      <point x="702" y="859" type="line"/>
      <point x="702" y="996" type="line"/>
      <point x="394" y="996" type="line"/>
      <point x="394" y="1238" type="line"/>
      <point x="374" y="1238" type="line"/>
      <point x="68" y="895" type="line"/>
      <point x="63" y="888"/>
      <point x="59" y="880"/>
      <point x="59" y="873" type="curve" smooth="yes"/>
      <point x="59" y="865"/>
      <point x="71" y="859"/>
      <point x="86" y="859" type="curve" smooth="yes"/>
      <point x="216" y="859" type="line"/>
      <point x="216" y="234" type="line" smooth="yes"/>
      <point x="216" y="72"/>
      <point x="349" y="-21"/>
    </contour>
  </outline>
</glyph>
<glyph name="z" format="1">
  <advance width="1023"/>
  <unicode hex="007A"/>
  <outline>
    <contour>
      <point x="135" y="0" type="line"/>
      <point x="876" y="0" type="line"/>
      <point x="876" y="140" type="line"/>
      <point x="389" y="140" type="line"/>
      <point x="890" y="951" type="line"/>
      <point x="872" y="998" type="line"/>
      <point x="164" y="998" type="line"/>
      <point x="164" y="857" type="line"/>
      <point x="627" y="857" type="line"/>
      <point x="125" y="35" type="line"/>
    </contour>
  </outline>
</glyph>
<glyph name="asciitilde" format="1">
  <advance width="624"/>
  <unicode hex="007E"/>
  <outline>
    <contour>
      <point x="410" y="244" type="curve" smooth="yes"/>
      <point x="496" y="244"/>
      <point x="553" y="294"/>
      <point x="603" y="367" type="curve"/>
      <point x="605" y="373"/>
      <point x="607" y="376"/>
      <point x="607" y="380" type="curve" smooth="yes"/>
      <point x="607" y="387"/>
      <point x="603" y="391"/>
      <point x="598" y="391" type="curve" smooth="yes"/>
      <point x="583" y="391"/>
      <point x="554" y="351"/>
      <point x="506" y="351" type="curve" smooth="yes"/>
      <point x="435" y="351"/>
      <point x="301" y="427"/>
      <point x="195" y="427" type="curve" smooth="yes"/>
      <point x="116" y="427"/>
      <point x="66" y="377"/>
      <point x="22" y="304" type="curve" smooth="yes"/>
      <point x="19" y="298"/>
      <point x="17" y="295"/>
      <point x="17" y="291" type="curve" smooth="yes"/>
      <point x="17" y="284"/>
      <point x="22" y="280"/>
      <point x="28" y="280" type="curve" smooth="yes"/>
      <point x="41" y="280"/>
      <point x="71" y="319"/>
      <point x="117" y="319" type="curve" smooth="yes"/>
      <point x="215" y="319"/>
      <point x="333" y="244"/>
    </contour>
  </outline>
</glyph>
<glyph name="Ntilde" format="1">
  <advance width="1595"/>
  <unicode hex="00D1"/>
  <outline>
    <contour>
      <point x="126" y="0" type="line"/>
      <point x="308" y="0" type="line"/>
      <point x="308" y="1193" type="line"/>
      <point x="1305" y="0" type="line"/>
      <point x="1469" y="0" type="line"/>
      <point x="1469" y="1515" type="line"/>
      <point x="1284" y="1515" type="line"/>
      <point x="1284" y="311" type="line"/>
      <point x="280" y="1515" type="line"/>
      <point x="126" y="1515" type="line"/>
    </contour>
    <contour>
      <point x="914" y="1668" type="curve" smooth="yes"/>
      <point x="1014" y="1668"/>
      <point x="1083" y="1726"/>
      <point x="1141" y="1813" type="curve"/>
      <point x="1144" y="1821"/>
      <point x="1145" y="1824"/>
      <point x="1145" y="1828" type="curve" smooth="yes"/>
      <point x="1145" y="1837"/>
      <point x="1141" y="1841"/>
      <point x="1133" y="1841" type="curve" smooth="yes"/>
      <point x="1116" y="1841"/>
      <point x="1084" y="1796"/>
      <point x="1026" y="1796" type="curve" smooth="yes"/>
      <point x="942" y="1796"/>
      <point x="785" y="1884"/>
      <point x="660" y="1884" type="curve" smooth="yes"/>
      <point x="566" y="1884"/>
      <point x="507" y="1826"/>
      <point x="455" y="1739" type="curve"/>
      <point x="450" y="1733"/>
      <point x="449" y="1729"/>
      <point x="449" y="1724" type="curve" smooth="yes"/>
      <point x="449" y="1717"/>
      <point x="455" y="1711"/>
      <point x="463" y="1711" type="curve" smooth="yes"/>
      <point x="479" y="1711"/>
      <point x="512" y="1756"/>
      <point x="568" y="1756" type="curve" smooth="yes"/>
      <point x="681" y="1756"/>
      <point x="822" y="1668"/>
    </contour>
  </outline>
</glyph>
<glyph name="ccedilla" format="1">
  <advance width="964"/>
  <unicode hex="00E7"/>
  <outline>
    <contour>
      <point x="456" y="-445" type="curve"/>
      <point x="457" y="-445" type="line"/>
      <point x="561" y="-445"/>
      <point x="663" y="-406"/>
      <point x="663" y="-293" type="curve" smooth="yes"/>
      <point x="663" y="-201"/>
      <point x="586" y="-132"/>
      <point x="470" y="-132" type="curve"/>
      <point x="508" y="-14" type="line"/>
      <point x="535" y="-18"/>
      <point x="563" y="-20"/>
      <point x="592" y="-20" type="curve" smooth="yes"/>
      <point x="617" y="-20"/>
      <point x="772" y="-14"/>
      <point x="863" y="43" type="curve"/>
      <point x="863" y="211" type="line"/>
      <point x="846" y="211" type="line"/>
      <point x="774" y="167"/>
      <point x="683" y="131"/>
      <point x="604" y="131" type="curve" smooth="yes"/>
      <point x="375" y="131"/>
      <point x="265" y="328"/>
      <point x="265" y="501" type="curve" smooth="yes"/>
      <point x="265" y="674"/>
      <point x="384" y="862"/>
      <point x="601" y="862" type="curve" smooth="yes"/>
      <point x="702" y="862"/>
      <point x="751" y="845"/>
      <point x="840" y="795" type="curve"/>
      <point x="840" y="961" type="line"/>
      <point x="785" y="995"/>
      <point x="671" y="1017"/>
      <point x="585" y="1017" type="curve" smooth="yes"/>
      <point x="318" y="1017"/>
      <point x="81" y="808"/>
      <point x="81" y="500" type="curve" smooth="yes"/>
      <point x="81" y="238"/>
      <point x="241" y="46"/>
      <point x="466" y="-6" type="curve"/>
      <point x="433" y="-6" type="line"/>
      <point x="347" y="-261" type="line"/>
      <point x="373" y="-261"/>
      <point x="530" y="-251"/>
      <point x="530" y="-327" type="curve" smooth="yes"/>
      <point x="530" y="-383"/>
      <point x="475" y="-397"/>
      <point x="418" y="-397" type="curve" smooth="yes"/>
      <point x="355" y="-397"/>
      <point x="290" y="-380"/>
      <point x="265" y="-380" type="curve" smooth="yes"/>
      <point x="257" y="-380"/>
      <point x="252" y="-383"/>
      <point x="252" y="-385" type="curve" smooth="yes"/>
      <point x="252" y="-390"/>
      <point x="260" y="-395"/>
      <point x="264" y="-399" type="curve"/>
      <point x="307" y="-426"/>
      <point x="382" y="-445"/>
    </contour>
  </outline>
</glyph>
<glyph name="ograve" format="1">
  <advance width="1198"/>
  <unicode hex="00F2"/>
  <outline>
    <contour>
      <point x="729" y="1147" type="curve" smooth="yes"/>
      <point x="733" y="1147"/>
      <point x="737" y="1154"/>
      <point x="737" y="1161" type="curve" smooth="yes"/>
      <point x="737" y="1167"/>
      <point x="737" y="1173"/>
      <point x="734" y="1181" type="curve"/>
      <point x="649" y="1558" type="line"/>
      <point x="629" y="1620"/>
      <point x="590" y="1644"/>
      <point x="553" y="1644" type="curve" smooth="yes"/>
      <point x="507" y="1644"/>
      <point x="460" y="1607"/>
      <point x="460" y="1555" type="curve" smooth="yes"/>
      <point x="460" y="1530"/>
      <point x="470" y="1503"/>
      <point x="493" y="1474" type="curve"/>
      <point x="702" y="1167" type="line" smooth="yes"/>
      <point x="711" y="1154"/>
      <point x="721" y="1147"/>
    </contour>
    <contour>
      <point x="599" y="131" type="curve" smooth="yes"/>
      <point x="397" y="131"/>
      <point x="260" y="297"/>
      <point x="260" y="497" type="curve" smooth="yes"/>
      <point x="260" y="699"/>
      <point x="397" y="863"/>
      <point x="599" y="863" type="curve" smooth="yes"/>
      <point x="801" y="863"/>
      <point x="940" y="699"/>
      <point x="940" y="497" type="curve" smooth="yes"/>
      <point x="940" y="297"/>
      <point x="801" y="131"/>
    </contour>
    <contour>
      <point x="599" y="-20" type="curve" smooth="yes"/>
      <point x="882" y="-20"/>
      <point x="1119" y="187"/>
      <point x="1119" y="499" type="curve" smooth="yes"/>
      <point x="1119" y="811"/>
      <point x="882" y="1015"/>
      <point x="599" y="1015" type="curve" smooth="yes"/>
      <point x="316" y="1015"/>
      <point x="81" y="811"/>
      <point x="81" y="499" type="curve" smooth="yes"/>
      <point x="81" y="187"/>
      <point x="316" y="-20"/>
    </contour>
  </outline>
</glyph>
<glyph name="amacron" format="1">
  <advance width="958"/>
  <unicode hex="0101"/>
  <outline>
    <contour>
      <point x="354" y="-20" type="curve" smooth="yes"/>
      <point x="435" y="-20"/>
      <point x="566" y="24"/>
      <point x="631" y="139" type="curve"/>
      <point x="663" y="71"/>
      <point x="751" y="15"/>
      <point x="813" y="-15" type="curve"/>
      <point x="911" y="128" type="line"/>
      <point x="829" y="170"/>
      <point x="780" y="178"/>
      <point x="780" y="285" type="curve" smooth="yes"/>
      <point x="780" y="692" type="line" smooth="yes"/>
      <point x="780" y="922"/>
      <point x="595" y="1006"/>
      <point x="429" y="1006" type="curve" smooth="yes"/>
      <point x="288" y="1006"/>
      <point x="143" y="919"/>
      <point x="104" y="878" type="curve"/>
      <point x="155" y="726" type="line"/>
      <point x="224" y="791"/>
      <point x="321" y="842"/>
      <point x="433" y="842" type="curve" smooth="yes"/>
      <point x="544" y="842"/>
      <point x="603" y="756"/>
      <point x="603" y="626" type="curve" smooth="yes"/>
      <point x="603" y="613"/>
      <point x="602" y="573"/>
      <point x="602" y="569" type="curve"/>
      <point x="438" y="526" type="line" smooth="yes"/>
      <point x="183" y="458"/>
      <point x="86" y="340"/>
      <point x="86" y="230" type="curve" smooth="yes"/>
      <point x="86" y="45"/>
      <point x="207" y="-20"/>
    </contour>
    <contour>
      <point x="242" y="1149" type="line"/>
      <point x="755" y="1149" type="line"/>
      <point x="755" y="1301" type="line"/>
      <point x="242" y="1301" type="line"/>
    </contour>
    <contour>
      <point x="602" y="225" type="line"/>
      <point x="527" y="129"/>
      <point x="275" y="26"/>
      <point x="275" y="244" type="curve" smooth="yes"/>
      <point x="275" y="381"/>
      <point x="477" y="419"/>
      <point x="602" y="459" type="curve"/>
    </contour>
  </outline>
</glyph>
<glyph name="cacute" format="1">
  <advance width="964"/>
  <unicode hex="0107"/>
  <outline>
    <contour>
      <point x="592" y="-19" type="curve" smooth="yes"/>
      <point x="617" y="-19"/>
      <point x="772" y="-13"/>
      <point x="863" y="45" type="curve"/>
      <point x="863" y="211" type="line"/>
      <point x="846" y="211" type="line"/>
      <point x="774" y="167"/>
      <point x="683" y="132"/>
      <point x="604" y="132" type="curve" smooth="yes"/>
      <point x="375" y="132"/>
      <point x="265" y="327"/>
      <point x="265" y="501" type="curve" smooth="yes"/>
      <point x="265" y="674"/>
      <point x="384" y="863"/>
      <point x="601" y="863" type="curve" smooth="yes"/>
      <point x="702" y="863"/>
      <point x="751" y="845"/>
      <point x="840" y="797" type="curve"/>
      <point x="840" y="961" type="line"/>
      <point x="785" y="997"/>
      <point x="671" y="1016"/>
      <point x="585" y="1016" type="curve" smooth="yes"/>
      <point x="318" y="1016"/>
      <point x="81" y="810"/>
      <point x="81" y="500" type="curve" smooth="yes"/>
      <point x="81" y="194"/>
      <point x="303" y="-19"/>
    </contour>
    <contour>
      <point x="337" y="1148" type="curve" smooth="yes"/>
      <point x="341" y="1148"/>
      <point x="352" y="1156"/>
      <point x="361" y="1170" type="curve"/>
      <point x="582" y="1461" type="line" smooth="yes"/>
      <point x="605" y="1492"/>
      <point x="616" y="1522"/>
      <point x="616" y="1546" type="curve" smooth="yes"/>
      <point x="616" y="1599"/>
      <point x="570" y="1633"/>
      <point x="525" y="1633" type="curve" smooth="yes"/>
      <point x="485" y="1633"/>
      <point x="445" y="1608"/>
      <point x="427" y="1546" type="curve"/>
      <point x="330" y="1184" type="line" smooth="yes"/>
      <point x="328" y="1177"/>
      <point x="327" y="1169"/>
      <point x="327" y="1163" type="curve" smooth="yes"/>
      <point x="327" y="1156"/>
      <point x="330" y="1148"/>
    </contour>
  </outline>
</glyph>
<glyph name="dcroat" format="1">
  <advance width="1064"/>
  <unicode hex="0111"/>
  <outline>
    <contour>
      <point x="640" y="-18" type="curve" smooth="yes"/>
      <point x="814" y="-18"/>
      <point x="956" y="49"/>
      <point x="956" y="49" type="curve"/>
      <point x="956" y="1191" type="line"/>
      <point x="1064" y="1191" type="line"/>
      <point x="1064" y="1320" type="line"/>
      <point x="956" y="1320" type="line"/>
      <point x="956" y="1490" type="line"/>
      <point x="775" y="1490" type="line"/>
      <point x="775" y="1320" type="line"/>
      <point x="446" y="1320" type="line"/>
      <point x="446" y="1191" type="line"/>
      <point x="775" y="1191" type="line"/>
      <point x="775" y="953" type="line"/>
      <point x="704" y="997"/>
      <point x="623" y="1017"/>
      <point x="541" y="1017" type="curve" smooth="yes"/>
      <point x="242" y="1017"/>
      <point x="80" y="768"/>
      <point x="80" y="515" type="curve" smooth="yes"/>
      <point x="80" y="250"/>
      <point x="256" y="-18"/>
    </contour>
    <contour>
      <point x="653" y="115" type="curve" smooth="yes"/>
      <point x="388" y="115"/>
      <point x="267" y="309"/>
      <point x="267" y="510" type="curve" smooth="yes"/>
      <point x="267" y="695"/>
      <point x="371" y="871"/>
      <point x="563" y="871" type="curve" smooth="yes"/>
      <point x="648" y="871"/>
      <point x="730" y="840"/>
      <point x="775" y="793" type="curve"/>
      <point x="775" y="136" type="line"/>
      <point x="734" y="117"/>
      <point x="692" y="115"/>
    </contour>
  </outline>
</glyph>
<glyph name="Gcircumflex" format="1">
  <advance width="1543"/>
  <unicode hex="011C"/>
  <outline>
    <contour>
      <point x="870" y="-19" type="curve" smooth="yes"/>
      <point x="1027" y="-19"/>
      <point x="1210" y="16"/>
      <point x="1421" y="104" type="curve"/>
      <point x="1421" y="730" type="line"/>
      <point x="953" y="730" type="line"/>
      <point x="953" y="557" type="line"/>
      <point x="1228" y="557" type="line"/>
      <point x="1228" y="219" type="line"/>
      <point x="1227" y="219" type="line"/>
      <point x="1105" y="169"/>
      <point x="989" y="145"/>
      <point x="886" y="145" type="curve" smooth="yes"/>
      <point x="531" y="145"/>
      <point x="303" y="409"/>
      <point x="303" y="730" type="curve" smooth="yes"/>
      <point x="303" y="1134"/>
      <point x="592" y="1375"/>
      <point x="936" y="1375" type="curve" smooth="yes"/>
      <point x="1081" y="1375"/>
      <point x="1238" y="1333"/>
      <point x="1386" y="1240" type="curve"/>
      <point x="1386" y="1409" type="line"/>
      <point x="1235" y="1495"/>
      <point x="1077" y="1536"/>
      <point x="921" y="1536" type="curve" smooth="yes"/>
      <point x="468" y="1536"/>
      <point x="106" y="1205"/>
      <point x="106" y="733" type="curve" smooth="yes"/>
      <point x="106" y="391"/>
      <point x="347" y="-19"/>
    </contour>
    <contour>
      <point x="460" y="1667" type="curve"/>
      <point x="461" y="1667"/>
      <point x="461" y="1667"/>
      <point x="462" y="1669" type="curve"/>
      <point x="759" y="1874" type="line"/>
      <point x="1054" y="1669" type="line"/>
      <point x="1055" y="1667"/>
      <point x="1056" y="1667"/>
      <point x="1057" y="1667" type="curve" smooth="yes"/>
      <point x="1059" y="1667"/>
      <point x="1062" y="1669"/>
      <point x="1062" y="1671" type="curve" smooth="yes"/>
      <point x="1062" y="1673" type="line"/>
      <point x="796" y="2080" type="line" smooth="yes"/>
      <point x="790" y="2088"/>
      <point x="773" y="2096"/>
      <point x="759" y="2096" type="curve" smooth="yes"/>
      <point x="744" y="2096"/>
      <point x="728" y="2088"/>
      <point x="722" y="2080" type="curve" smooth="yes"/>
      <point x="457" y="1673" type="line"/>
      <point x="456" y="1673"/>
      <point x="456" y="1672"/>
      <point x="456" y="1671" type="curve" smooth="yes"/>
      <point x="456" y="1669"/>
      <point x="458" y="1667"/>
    </contour>
  </outline>
</glyph>
<glyph name="gdotaccent" format="1">
  <advance width="1069"/>
  <unicode hex="0121"/>
  <outline>
    <contour>
      <point x="551" y="-437" type="curve" smooth="yes"/>
      <point x="756" y="-437"/>
      <point x="958" y="-345"/>
      <point x="958" y="-52" type="curve" smooth="yes"/>
      <point x="958" y="998" type="line"/>
      <point x="783" y="998" type="line"/>
      <point x="783" y="885" type="line"/>
      <point x="694" y="975"/>
      <point x="603" y="1016"/>
      <point x="516" y="1016" type="curve" smooth="yes"/>
      <point x="298" y="1016"/>
      <point x="80" y="805"/>
      <point x="80" y="526" type="curve" smooth="yes"/>
      <point x="80" y="269"/>
      <point x="230" y="0"/>
      <point x="538" y="0" type="curve" smooth="yes"/>
      <point x="676" y="0"/>
      <point x="777" y="85"/>
      <point x="780" y="87" type="curve"/>
      <point x="795" y="33"/>
      <point x="803" y="-16"/>
      <point x="803" y="-59" type="curve" smooth="yes"/>
      <point x="803" y="-230"/>
      <point x="696" y="-291"/>
      <point x="559" y="-291" type="curve" smooth="yes"/>
      <point x="467" y="-291"/>
      <point x="361" y="-264"/>
      <point x="263" y="-223" type="curve"/>
      <point x="263" y="-379" type="line"/>
      <point x="344" y="-414"/>
      <point x="448" y="-437"/>
    </contour>
    <contour>
      <point x="571" y="152" type="curve" smooth="yes"/>
      <point x="386" y="152"/>
      <point x="264" y="287"/>
      <point x="264" y="517" type="curve" smooth="yes"/>
      <point x="264" y="733"/>
      <point x="408" y="863"/>
      <point x="557" y="863" type="curve" smooth="yes"/>
      <point x="626" y="863"/>
      <point x="704" y="835"/>
      <point x="780" y="773" type="curve"/>
      <point x="780" y="202" type="line"/>
      <point x="704" y="168"/>
      <point x="633" y="152"/>
    </contour>
    <contour>
      <point x="519" y="1149" type="curve" smooth="yes"/>
      <point x="583" y="1149"/>
      <point x="649" y="1190"/>
      <point x="649" y="1276" type="curve" smooth="yes"/>
      <point x="649" y="1365"/>
      <point x="583" y="1409"/>
      <point x="519" y="1409" type="curve" smooth="yes"/>
      <point x="454" y="1409"/>
      <point x="389" y="1366"/>
      <point x="389" y="1276" type="curve" smooth="yes"/>
      <point x="389" y="1190"/>
      <point x="454" y="1149"/>
    </contour>
  </outline>
</glyph>
<glyph name="hbar" format="1">
  <advance width="1032"/>
  <unicode hex="0127"/>
  <outline>
    <contour>
      <point x="107" y="0" type="line"/>
      <point x="286" y="0" type="line"/>
      <point x="286" y="730" type="line"/>
      <point x="343" y="803"/>
      <point x="507" y="862"/>
      <point x="578" y="862" type="curve" smooth="yes"/>
      <point x="704" y="862"/>
      <point x="754" y="787"/>
      <point x="754" y="600" type="curve" smooth="yes"/>
      <point x="754" y="0" type="line"/>
      <point x="931" y="0" type="line"/>
      <point x="931" y="661" type="line" smooth="yes"/>
      <point x="931" y="906"/>
      <point x="773" y="1017"/>
      <point x="599" y="1017" type="curve" smooth="yes"/>
      <point x="490" y="1017"/>
      <point x="373" y="971"/>
      <point x="286" y="889" type="curve"/>
      <point x="286" y="1191" type="line"/>
      <point x="572" y="1191" type="line"/>
      <point x="572" y="1320" type="line"/>
      <point x="286" y="1320" type="line"/>
      <point x="286" y="1491" type="line"/>
      <point x="107" y="1491" type="line"/>
      <point x="107" y="1320" type="line"/>
      <point x="0" y="1320" type="line"/>
      <point x="0" y="1191" type="line"/>
      <point x="107" y="1191" type="line"/>
    </contour>
  </outline>
</glyph>
<glyph name="IJ" format="1">
  <advance width="1036"/>
  <unicode hex="0132"/>
  <outline>
    <contour>
      <point x="8" y="-394" type="line"/>
      <point x="328" y="-393"/>
      <point x="463" y="-289"/>
      <point x="463" y="-44" type="curve" smooth="yes"/>
      <point x="463" y="1514" type="line"/>
      <point x="272" y="1514" type="line"/>
      <point x="272" y="23" type="line" smooth="yes"/>
      <point x="272" y="-177"/>
      <point x="241" y="-240"/>
      <point x="8" y="-240" type="curve"/>
    </contour>
    <contour>
      <point x="727" y="0" type="line"/>
      <point x="919" y="0" type="line"/>
      <point x="919" y="1514" type="line"/>
      <point x="727" y="1514" type="line"/>
    </contour>
  </outline>
</glyph>
<glyph name="jcircumflex" format="1">
  <advance width="508"/>
  <unicode hex="0135"/>
  <outline>
    <contour>
      <point x="-86" y="1149" type="curve"/>
      <point x="-85" y="1149"/>
      <point x="-85" y="1149"/>
      <point x="-82" y="1150" type="curve"/>
      <point x="213" y="1355" type="line"/>
      <point x="509" y="1150" type="line"/>
      <point x="512" y="1149"/>
      <point x="513" y="1149"/>
      <point x="514" y="1149" type="curve" smooth="yes"/>
      <point x="515" y="1149"/>
      <point x="516" y="1150"/>
      <point x="516" y="1151" type="curve"/>
      <point x="516" y="1153" type="line"/>
      <point x="252" y="1560" type="line" smooth="yes"/>
      <point x="245" y="1570"/>
      <point x="227" y="1575"/>
      <point x="213" y="1575" type="curve" smooth="yes"/>
      <point x="199" y="1575"/>
      <point x="184" y="1570"/>
      <point x="176" y="1560" type="curve"/>
      <point x="-89" y="1153" type="line"/>
      <point x="-90" y="1153"/>
      <point x="-90" y="1152"/>
      <point x="-90" y="1151" type="curve" smooth="yes"/>
      <point x="-90" y="1150"/>
      <point x="-88" y="1149"/>
    </contour>
    <contour>
      <point x="54" y="-385" type="line"/>
      <point x="361" y="-385"/>
      <point x="400" y="-173"/>
      <point x="400" y="-79" type="curve" smooth="yes"/>
      <point x="400" y="1016" type="line"/>
      <point x="214" y="1016" type="line"/>
      <point x="214" y="3" type="line" smooth="yes"/>
      <point x="214" y="-113"/>
      <point x="215" y="-243"/>
      <point x="26" y="-243" type="curve"/>
    </contour>
  </outline>
</glyph>
<glyph name="Kcommaaccent" format="1">
  <advance width="1326"/>
  <unicode hex="0136"/>
  <outline>
    <contour>
      <point x="128" y="0" type="line"/>
      <point x="320" y="0" type="line"/>
      <point x="320" y="743" type="line"/>
      <point x="1001" y="0" type="line"/>
      <point x="1260" y="0" type="line"/>
      <point x="1260" y="9" type="line"/>
      <point x="546" y="789" type="line"/>
      <point x="1168" y="1507" type="line"/>
      <point x="1168" y="1517" type="line"/>
      <point x="933" y="1517" type="line"/>
      <point x="320" y="825" type="line"/>
      <point x="320" y="1517" type="line"/>
      <point x="128" y="1517" type="line"/>
    </contour>
    <contour>
      <point x="592" y="-604" type="line"/>
      <point x="696" y="-604"/>
      <point x="828" y="-412"/>
      <point x="828" y="-278" type="curve" smooth="yes"/>
      <point x="828" y="-177"/>
      <point x="756" y="-132"/>
      <point x="685" y="-132" type="curve" smooth="yes"/>
      <point x="619" y="-132"/>
      <point x="553" y="-178"/>
      <point x="553" y="-269" type="curve" smooth="yes"/>
      <point x="553" y="-321"/>
      <point x="585" y="-374"/>
      <point x="654" y="-392" type="curve"/>
      <point x="654" y="-471"/>
      <point x="629" y="-523"/>
      <point x="568" y="-578" type="curve"/>
    </contour>
  </outline>
</glyph>
<glyph name="kgreenlandic" format="1">
  <advance width="1006"/>
  <unicode hex="0138"/>
  <outline>
    <contour>
      <point x="108" y="0" type="line"/>
      <point x="286" y="0" type="line"/>
      <point x="286" y="503" type="line"/>
      <point x="765" y="0" type="line"/>
      <point x="1003" y="0" type="line"/>
      <point x="493" y="527" type="line"/>
      <point x="947" y="998" type="line"/>
      <point x="717" y="998" type="line"/>
      <point x="286" y="538" type="line"/>
      <point x="286" y="1491" type="line"/>
      <point x="108" y="1491" type="line"/>
    </contour>
  </outline>
</glyph>
<glyph name="Nacute" format="1">
  <advance width="1595"/>
  <unicode hex="0143"/>
  <outline>
    <contour>
      <point x="126" y="0" type="line"/>
      <point x="308" y="0" type="line"/>
      <point x="308" y="1193" type="line"/>
      <point x="1305" y="0" type="line"/>
      <point x="1469" y="0" type="line"/>
      <point x="1469" y="1515" type="line"/>
      <point x="1284" y="1515" type="line"/>
      <point x="1284" y="310" type="line"/>
      <point x="280" y="1515" type="line"/>
      <point x="126" y="1515" type="line"/>
    </contour>
    <contour>
      <point x="663" y="1668" type="curve" smooth="yes"/>
      <point x="667" y="1668"/>
      <point x="678" y="1674"/>
      <point x="687" y="1689" type="curve"/>
      <point x="908" y="1980" type="line" smooth="yes"/>
      <point x="931" y="2011"/>
      <point x="942" y="2041"/>
      <point x="942" y="2065" type="curve" smooth="yes"/>
      <point x="942" y="2118"/>
      <point x="897" y="2152"/>
      <point x="851" y="2152" type="curve" smooth="yes"/>
      <point x="811" y="2152"/>
      <point x="771" y="2128"/>
      <point x="753" y="2065" type="curve"/>
      <point x="656" y="1703" type="line" smooth="yes"/>
      <point x="654" y="1696"/>
      <point x="653" y="1688"/>
      <point x="653" y="1683" type="curve" smooth="yes"/>
      <point x="653" y="1674"/>
      <point x="656" y="1668"/>
    </contour>
  </outline>
</glyph>
<glyph name="Ohungarumlaut" format="1">
  <advance width="1757"/>
  <unicode hex="0150"/>
  <outline>
    <contour>
      <point x="562" y="1668" type="curve" smooth="yes"/>
      <point x="566" y="1668"/>
      <point x="577" y="1674"/>
      <point x="587" y="1690" type="curve"/>
      <point x="808" y="1981" type="line" smooth="yes"/>
      <point x="831" y="2011"/>
      <point x="841" y="2040"/>
      <point x="841" y="2066" type="curve" smooth="yes"/>
      <point x="841" y="2119"/>
      <point x="796" y="2153"/>
      <point x="751" y="2153" type="curve" smooth="yes"/>
      <point x="710" y="2153"/>
      <point x="671" y="2128"/>
      <point x="652" y="2066" type="curve"/>
      <point x="558" y="1704" type="line"/>
      <point x="553" y="1696"/>
      <point x="551" y="1687"/>
      <point x="551" y="1683" type="curve" smooth="yes"/>
      <point x="551" y="1674"/>
      <point x="558" y="1668"/>
    </contour>
    <contour>
      <point x="918" y="1668" type="curve" smooth="yes"/>
      <point x="923" y="1668"/>
      <point x="935" y="1674"/>
      <point x="945" y="1690" type="curve"/>
      <point x="1167" y="1981" type="line"/>
      <point x="1191" y="2011"/>
      <point x="1199" y="2040"/>
      <point x="1199" y="2066" type="curve" smooth="yes"/>
      <point x="1199" y="2119"/>
      <point x="1154" y="2153"/>
      <point x="1108" y="2153" type="curve" smooth="yes"/>
      <point x="1068" y="2153"/>
      <point x="1027" y="2128"/>
      <point x="1010" y="2066" type="curve" smooth="yes"/>
      <point x="913" y="1704" type="line"/>
      <point x="910" y="1696"/>
      <point x="910" y="1687"/>
      <point x="910" y="1683" type="curve" smooth="yes"/>
      <point x="910" y="1674"/>
      <point x="913" y="1668"/>
    </contour>
    <contour>
      <point x="877" y="162" type="curve" smooth="yes"/>
      <point x="562" y="162"/>
      <point x="305" y="429"/>
      <point x="305" y="759" type="curve" smooth="yes"/>
      <point x="305" y="1088"/>
      <point x="562" y="1356"/>
      <point x="877" y="1356" type="curve" smooth="yes"/>
      <point x="1192" y="1356"/>
      <point x="1451" y="1088"/>
      <point x="1451" y="759" type="curve" smooth="yes"/>
      <point x="1451" y="429"/>
      <point x="1192" y="162"/>
    </contour>
    <contour>
      <point x="877" y="-20" type="curve" smooth="yes"/>
      <point x="1301" y="-20"/>
      <point x="1650" y="330"/>
      <point x="1650" y="759" type="curve" smooth="yes"/>
      <point x="1650" y="1188"/>
      <point x="1301" y="1536"/>
      <point x="877" y="1536" type="curve" smooth="yes"/>
      <point x="452" y="1536"/>
      <point x="105" y="1188"/>
      <point x="105" y="759" type="curve" smooth="yes"/>
      <point x="105" y="330"/>
      <point x="452" y="-20"/>
    </contour>
  </outline>
</glyph>
<glyph name="scedilla" format="1">
  <advance width="833"/>
  <unicode hex="015F"/>
  <outline>
    <contour>
      <point x="380" y="-446" type="curve"/>
      <point x="379" y="-445" type="line"/>
      <point x="483" y="-445"/>
      <point x="587" y="-406"/>
      <point x="587" y="-293" type="curve" smooth="yes"/>
      <point x="587" y="-201"/>
      <point x="508" y="-132"/>
      <point x="392" y="-132" type="curve"/>
      <point x="428" y="-20" type="line"/>
      <point x="619" y="-19"/>
      <point x="738" y="104"/>
      <point x="738" y="245" type="curve" smooth="yes"/>
      <point x="738" y="331"/>
      <point x="686" y="428"/>
      <point x="575" y="501" type="curve"/>
      <point x="392" y="617" type="line"/>
      <point x="310" y="673"/>
      <point x="288" y="717"/>
      <point x="288" y="754" type="curve" smooth="yes"/>
      <point x="288" y="841"/>
      <point x="361" y="872"/>
      <point x="444" y="872" type="curve" smooth="yes"/>
      <point x="530" y="872"/>
      <point x="615" y="832"/>
      <point x="668" y="803" type="curve"/>
      <point x="705" y="945" type="line"/>
      <point x="636" y="988"/>
      <point x="522" y="1017"/>
      <point x="433" y="1017" type="curve" smooth="yes"/>
      <point x="219" y="1017"/>
      <point x="106" y="890"/>
      <point x="106" y="754" type="curve" smooth="yes"/>
      <point x="106" y="661"/>
      <point x="146" y="564"/>
      <point x="263" y="494" type="curve"/>
      <point x="474" y="371" type="line"/>
      <point x="545" y="327"/>
      <point x="567" y="281"/>
      <point x="567" y="242" type="curve" smooth="yes"/>
      <point x="567" y="169"/>
      <point x="505" y="134"/>
      <point x="424" y="134" type="curve" smooth="yes"/>
      <point x="319" y="134"/>
      <point x="199" y="181"/>
      <point x="123" y="234" type="curve"/>
      <point x="104" y="87" type="line"/>
      <point x="159" y="31"/>
      <point x="255" y="-5"/>
      <point x="355" y="-17" type="curve"/>
      <point x="272" y="-262" type="line"/>
      <point x="297" y="-262"/>
      <point x="455" y="-252"/>
      <point x="455" y="-328" type="curve" smooth="yes"/>
      <point x="455" y="-384"/>
      <point x="400" y="-398"/>
      <point x="343" y="-398" type="curve" smooth="yes"/>
      <point x="279" y="-398"/>
      <point x="215" y="-381"/>
      <point x="189" y="-381" type="curve" smooth="yes"/>
      <point x="181" y="-381"/>
      <point x="176" y="-384"/>
      <point x="176" y="-386" type="curve" smooth="yes"/>
      <point x="176" y="-391"/>
      <point x="184" y="-396"/>
      <point x="188" y="-400" type="curve"/>
      <point x="231" y="-427"/>
      <point x="305" y="-446"/>
    </contour>
  </outline>
</glyph>
<glyph name="scaron" format="1">
  <advance width="833"/>
  <unicode hex="0161"/>
  <outline>
    <contour>
      <point x="426" y="-20" type="curve" smooth="yes"/>
      <point x="616" y="-20"/>
      <point x="736" y="104"/>
      <point x="736" y="245" type="curve" smooth="yes"/>
      <point x="736" y="331"/>
      <point x="685" y="428"/>
      <point x="572" y="501" type="curve"/>
      <point x="389" y="617" type="line"/>
      <point x="308" y="674"/>
      <point x="285" y="717"/>
      <point x="285" y="754" type="curve" smooth="yes"/>
      <point x="285" y="843"/>
      <point x="360" y="872"/>
      <point x="441" y="872" type="curve" smooth="yes"/>
      <point x="528" y="872"/>
      <point x="614" y="833"/>
      <point x="667" y="803" type="curve"/>
      <point x="703" y="945" type="line"/>
      <point x="634" y="989"/>
      <point x="520" y="1017"/>
      <point x="430" y="1017" type="curve" smooth="yes"/>
      <point x="217" y="1017"/>
      <point x="106" y="891"/>
      <point x="106" y="754" type="curve" smooth="yes"/>
      <point x="106" y="662"/>
      <point x="145" y="565"/>
      <point x="260" y="495" type="curve"/>
      <point x="472" y="372" type="line"/>
      <point x="544" y="327"/>
      <point x="567" y="281"/>
      <point x="567" y="242" type="curve" smooth="yes"/>
      <point x="567" y="169"/>
      <point x="503" y="134"/>
      <point x="424" y="134" type="curve" smooth="yes"/>
      <point x="317" y="134"/>
      <point x="197" y="180"/>
      <point x="123" y="234" type="curve"/>
      <point x="101" y="87" type="line"/>
      <point x="171" y="19"/>
      <point x="301" y="-20"/>
    </contour>
    <contour>
      <point x="392" y="1149" type="curve" smooth="yes"/>
      <point x="408" y="1149"/>
      <point x="424" y="1154"/>
      <point x="429" y="1164" type="curve"/>
      <point x="695" y="1571" type="line"/>
      <point x="696" y="1571"/>
      <point x="696" y="1572"/>
      <point x="696" y="1573" type="curve" smooth="yes"/>
      <point x="696" y="1574"/>
      <point x="695" y="1576"/>
      <point x="692" y="1576" type="curve" smooth="yes"/>
      <point x="691" y="1576"/>
      <point x="691" y="1576"/>
      <point x="690" y="1574" type="curve"/>
      <point x="392" y="1368" type="line"/>
      <point x="98" y="1574" type="line"/>
      <point x="97" y="1576"/>
      <point x="95" y="1576"/>
      <point x="94" y="1576" type="curve" smooth="yes"/>
      <point x="92" y="1576"/>
      <point x="91" y="1574"/>
      <point x="91" y="1573" type="curve"/>
      <point x="91" y="1571" type="line"/>
      <point x="356" y="1164" type="line" smooth="yes"/>
      <point x="362" y="1154"/>
      <point x="378" y="1149"/>
    </contour>
  </outline>
</glyph>
<glyph name="uhungarumlaut" format="1">
  <advance width="1003"/>
  <unicode hex="0171"/>
  <outline>
    <contour>
      <point x="418" y="-17" type="curve" smooth="yes"/>
      <point x="524" y="-17"/>
      <point x="633" y="33"/>
      <point x="720" y="130" type="curve"/>
      <point x="720" y="0" type="line"/>
      <point x="895" y="0" type="line"/>
      <point x="895" y="999" type="line"/>
      <point x="718" y="999" type="line"/>
      <point x="718" y="273" type="line"/>
      <point x="662" y="187"/>
      <point x="551" y="128"/>
      <point x="452" y="128" type="curve" smooth="yes"/>
      <point x="358" y="128"/>
      <point x="279" y="183"/>
      <point x="279" y="326" type="curve" smooth="yes"/>
      <point x="279" y="999" type="line"/>
      <point x="100" y="999" type="line"/>
      <point x="100" y="337" type="line" smooth="yes"/>
      <point x="100" y="102"/>
      <point x="252" y="-17"/>
    </contour>
    <contour>
      <point x="184" y="1149" type="curve" smooth="yes"/>
      <point x="188" y="1149"/>
      <point x="199" y="1157"/>
      <point x="209" y="1171" type="curve" smooth="yes"/>
      <point x="430" y="1462" type="line" smooth="yes"/>
      <point x="454" y="1493"/>
      <point x="464" y="1522"/>
      <point x="464" y="1547" type="curve" smooth="yes"/>
      <point x="464" y="1600"/>
      <point x="418" y="1634"/>
      <point x="373" y="1634" type="curve" smooth="yes"/>
      <point x="332" y="1634"/>
      <point x="293" y="1609"/>
      <point x="274" y="1547" type="curve"/>
      <point x="180" y="1185" type="line"/>
      <point x="177" y="1178"/>
      <point x="173" y="1170"/>
      <point x="173" y="1164" type="curve" smooth="yes"/>
      <point x="173" y="1157"/>
      <point x="180" y="1149"/>
    </contour>
    <contour>
      <point x="540" y="1149" type="curve" smooth="yes"/>
      <point x="545" y="1149"/>
      <point x="557" y="1157"/>
      <point x="567" y="1171" type="curve" smooth="yes"/>
      <point x="789" y="1462" type="line" smooth="yes"/>
      <point x="813" y="1493"/>
      <point x="821" y="1522"/>
      <point x="821" y="1547" type="curve" smooth="yes"/>
      <point x="821" y="1600"/>
      <point x="776" y="1634"/>
      <point x="731" y="1634" type="curve" smooth="yes"/>
      <point x="690" y="1634"/>
      <point x="649" y="1609"/>
      <point x="632" y="1547" type="curve" smooth="yes"/>
      <point x="535" y="1185" type="line"/>
      <point x="532" y="1178"/>
      <point x="532" y="1170"/>
      <point x="532" y="1164" type="curve" smooth="yes"/>
      <point x="532" y="1157"/>
      <point x="535" y="1149"/>
    </contour>
  </outline>
</glyph>
<glyph name="uni0206" format="1">
  <advance width="1060"/>
  <unicode hex="0206"/>
  <outline>
    <contour>
      <point x="128" y="0" type="line"/>
      <point x="973" y="0" type="line"/>
      <point x="973" y="177" type="line"/>
      <point x="319" y="177" type="line"/>
      <point x="319" y="682" type="line"/>
      <point x="946" y="682" type="line"/>
      <point x="946" y="856" type="line"/>
      <point x="319" y="856" type="line"/>
      <point x="319" y="1339" type="line"/>
      <point x="960" y="1339" type="line"/>
      <point x="960" y="1516" type="line"/>
      <point x="128" y="1516" type="line"/>
    </contour>
    <contour>
      <point x="274" y="1668" type="curve"/>
      <point x="418" y="1668" type="line"/>
      <point x="427" y="1750"/>
      <point x="477" y="1793"/>
      <point x="545" y="1793" type="curve" smooth="yes"/>
      <point x="611" y="1793"/>
      <point x="661" y="1750"/>
      <point x="670" y="1668" type="curve"/>
      <point x="814" y="1668" type="line"/>
      <point x="807" y="1828"/>
      <point x="669" y="1920"/>
      <point x="546" y="1920" type="curve" smooth="yes"/>
      <point x="420" y="1920"/>
      <point x="281" y="1828"/>
    </contour>
  </outline>
</glyph>
<glyph name="uni020B" format="1">
  <advance width="456"/>
  <unicode hex="020B"/>
  <outline>
    <contour>
      <point x="-19" y="1149" type="curve"/>
      <point x="124" y="1149" type="line"/>
      <point x="133" y="1231"/>
      <point x="183" y="1273"/>
      <point x="250" y="1273" type="curve" smooth="yes"/>
      <point x="318" y="1273"/>
      <point x="368" y="1231"/>
      <point x="377" y="1149" type="curve"/>
      <point x="520" y="1149" type="line"/>
      <point x="514" y="1308"/>
      <point x="375" y="1401"/>
      <point x="251" y="1401" type="curve" smooth="yes"/>
      <point x="127" y="1401"/>
      <point x="-13" y="1308"/>
    </contour>
    <contour>
      <point x="161" y="0" type="line"/>
      <point x="342" y="0" type="line"/>
      <point x="342" y="999" type="line"/>
      <point x="161" y="999" type="line"/>
    </contour>
  </outline>
</glyph>
<glyph name="Scommaaccent" format="1">
  <advance width="990"/>
  <unicode hex="0218"/>
  <outline>
    <contour>
      <point x="462" y="-14" type="curve" smooth="yes"/>
      <point x="689" y="-14"/>
      <point x="910" y="124"/>
      <point x="910" y="390" type="curve" smooth="yes"/>
      <point x="910" y="534"/>
      <point x="859" y="643"/>
      <point x="682" y="771" type="curve"/>
      <point x="425" y="948" type="line" smooth="yes"/>
      <point x="333" y="1012"/>
      <point x="280" y="1092"/>
      <point x="280" y="1170" type="curve" smooth="yes"/>
      <point x="280" y="1273"/>
      <point x="365" y="1359"/>
      <point x="534" y="1359" type="curve" smooth="yes"/>
      <point x="676" y="1359"/>
      <point x="823" y="1248"/>
      <point x="853" y="1224" type="curve"/>
      <point x="853" y="1439" type="line"/>
      <point x="823" y="1466"/>
      <point x="658" y="1537"/>
      <point x="516" y="1537" type="curve" smooth="yes"/>
      <point x="230" y="1537"/>
      <point x="72" y="1346"/>
      <point x="72" y="1149" type="curve" smooth="yes"/>
      <point x="72" y="1035"/>
      <point x="127" y="916"/>
      <point x="245" y="831" type="curve" smooth="yes"/>
      <point x="560" y="605" type="line" smooth="yes"/>
      <point x="699" y="506"/>
      <point x="719" y="446"/>
      <point x="719" y="376" type="curve" smooth="yes"/>
      <point x="719" y="239"/>
      <point x="610" y="167"/>
      <point x="477" y="167" type="curve" smooth="yes"/>
      <point x="295" y="167"/>
      <point x="198" y="266"/>
      <point x="103" y="343" type="curve"/>
      <point x="103" y="123" type="line"/>
      <point x="199" y="32"/>
      <point x="331" y="-14"/>
    </contour>
    <contour>
      <point x="391" y="-619" type="line"/>
      <point x="495" y="-619"/>
      <point x="628" y="-427"/>
      <point x="628" y="-292" type="curve" smooth="yes"/>
      <point x="628" y="-192"/>
      <point x="555" y="-146"/>
      <point x="487" y="-146" type="curve" smooth="yes"/>
      <point x="419" y="-146"/>
      <point x="354" y="-193"/>
      <point x="354" y="-284" type="curve" smooth="yes"/>
      <point x="354" y="-336"/>
      <point x="385" y="-388"/>
      <point x="453" y="-408" type="curve"/>
      <point x="453" y="-487"/>
      <point x="429" y="-538"/>
      <point x="368" y="-594" type="curve"/>
    </contour>
  </outline>
</glyph>
<glyph name="hungarumlaut" format="1">
  <advance width="730"/>
  <unicode hex="02DD"/>
  <outline>
    <contour>
      <point x="51" y="127" type="curve" smooth="yes"/>
      <point x="58" y="127"/>
      <point x="66" y="134"/>
      <point x="76" y="148" type="curve" smooth="yes"/>
      <point x="297" y="439" type="line" smooth="yes"/>
      <point x="321" y="470"/>
      <point x="332" y="500"/>
      <point x="332" y="524" type="curve" smooth="yes"/>
      <point x="332" y="577"/>
      <point x="287" y="611"/>
      <point x="241" y="611" type="curve" smooth="yes"/>
      <point x="202" y="611"/>
      <point x="161" y="587"/>
      <point x="143" y="524" type="curve"/>
      <point x="47" y="162" type="line" smooth="yes"/>
      <point x="45" y="155"/>
      <point x="40" y="146"/>
      <point x="40" y="142" type="curve" smooth="yes"/>
      <point x="40" y="134"/>
      <point x="47" y="127"/>
    </contour>
    <contour>
      <point x="408" y="127" type="curve" smooth="yes"/>
      <point x="413" y="127"/>
      <point x="425" y="134"/>
      <point x="434" y="148" type="curve"/>
      <point x="656" y="439" type="line" smooth="yes"/>
      <point x="680" y="470"/>
      <point x="689" y="500"/>
      <point x="689" y="524" type="curve" smooth="yes"/>
      <point x="689" y="577"/>
      <point x="643" y="611"/>
      <point x="598" y="611" type="curve" smooth="yes"/>
      <point x="558" y="611"/>
      <point x="519" y="587"/>
      <point x="499" y="524" type="curve"/>
      <point x="403" y="162" type="line"/>
      <point x="400" y="155"/>
      <point x="400" y="146"/>
      <point x="400" y="142" type="curve" smooth="yes"/>
      <point x="400" y="134"/>
      <point x="403" y="127"/>
    </contour>
  </outline>
</glyph>
<glyph name="uni030F" format="1">
  <advance width="730"/>
  <unicode hex="030F"/>
  <outline>
    <contour>
      <point x="322" y="127" type="curve" smooth="yes"/>
      <point x="327" y="127"/>
      <point x="331" y="134"/>
      <point x="331" y="142" type="curve" smooth="yes"/>
      <point x="331" y="146"/>
      <point x="331" y="155"/>
      <point x="328" y="162" type="curve"/>
      <point x="231" y="524" type="line"/>
      <point x="211" y="587"/>
      <point x="171" y="611"/>
      <point x="132" y="611" type="curve" smooth="yes"/>
      <point x="87" y="611"/>
      <point x="44" y="577"/>
      <point x="44" y="524" type="curve" smooth="yes"/>
      <point x="44" y="500"/>
      <point x="51" y="470"/>
      <point x="75" y="439" type="curve" smooth="yes"/>
      <point x="296" y="148" type="line"/>
      <point x="305" y="134"/>
      <point x="317" y="127"/>
    </contour>
    <contour>
      <point x="680" y="127" type="curve" smooth="yes"/>
      <point x="684" y="127"/>
      <point x="688" y="134"/>
      <point x="688" y="142" type="curve" smooth="yes"/>
      <point x="688" y="146"/>
      <point x="688" y="155"/>
      <point x="685" y="162" type="curve"/>
      <point x="588" y="524" type="line"/>
      <point x="570" y="587"/>
      <point x="529" y="611"/>
      <point x="490" y="611" type="curve" smooth="yes"/>
      <point x="444" y="611"/>
      <point x="400" y="577"/>
      <point x="400" y="524" type="curve" smooth="yes"/>
      <point x="400" y="500"/>
      <point x="409" y="470"/>
      <point x="432" y="439" type="curve" smooth="yes"/>
      <point x="655" y="148" type="line" smooth="yes"/>
      <point x="665" y="134"/>
      <point x="673" y="127"/>
    </contour>
  </outline>
</glyph>
